<svg width="32" height="32" viewBox="0 0 32 32" fill="none" xmlns="http://www.w3.org/2000/svg">
<path d="M22.6318 26C20.7317 27.2626 18.4524 28 16 28C13.5476 28 11.2683 27.2626 9.36816 26H22.6318ZM26.3906 22C25.9759 22.7166 25.4911 23.387 24.9424 24H7.05762C6.50886 23.387 6.02406 22.7166 5.60938 22H26.3906ZM27.833 18C27.7175 18.6885 27.5419 19.3565 27.3145 20H4.68555C4.45806 19.3565 4.28252 18.6885 4.16699 18H27.833ZM16 4C22.6274 4 28 9.37258 28 16H4C4 9.37258 9.37258 4 16 4Z" fill="#D00019"/>
</svg>
